<svg height="496pt" viewBox="0 0 496 496" width="496pt" xmlns="http://www.w3.org/2000/svg"><path d="m64 152h368c4.414062 0 8 3.585938 8 8v264h-128c-10.246094 10.246094-24.136719 16-38.625 16h-50.742188c-14.488281 0-28.386718-5.753906-38.625-16h-128.007812v-264c0-4.414062 3.585938-8 8-8zm0 0" fill="#69d6f4"/><path d="m488 424v32c0 17.679688-14.320312 32-32 32h-416c-17.679688 0-32-14.320312-32-32v-32h176c10.238281 10.238281 24.160156 16 38.640625 16h50.71875c14.480469 0 28.402344-5.761719 38.640625-16zm0 0" fill="#838f9b"/><path d="m472 152v272h-32v-264c0-4.398438-3.601562-8-8-8h-32c4.160156-10 6.800781-20.71875 7.679688-32h32.320312c17.679688 0 32 14.320312 32 32zm0 0" fill="#aab2bd"/><path d="m208 152h-144c-4.398438 0-8 3.601562-8 8v264h-32v-272c0-17.679688 14.320312-32 32-32h144.320312c.878907 11.28125 3.519532 22 7.679688 32zm0 0" fill="#aab2bd"/><path d="m392 344c8.800781 0 16 7.199219 16 16s-7.199219 16-16 16-16-7.199219-16-16c0-3.601562 1.199219-6.878906 3.199219-9.601562 2.960937-3.839844 7.601562-6.398438 12.800781-6.398438zm0 0" fill="#fcd770"/><path d="m408 112c0 2.71875-.078125 5.359375-.320312 8-.878907 11.28125-3.519532 22-7.679688 32-11.519531 27.601562-34.558594 49.199219-63.121094 58.640625l-.878906-2.640625-32-96 73.519531-73.519531c18.800781 18.800781 30.480469 44.800781 30.480469 73.519531zm0 0" fill="#b4dd7f"/><path d="m377.519531 38.480469-73.519531 73.519531-96-40c15.679688-37.601562 52.71875-64 96-64 28.71875 0 54.71875 11.679688 73.519531 30.480469zm0 0" fill="#69d6f4"/><g fill="#fcd770"><path d="m315.519531 322c-2.238281-2.71875-3.519531-6.238281-3.519531-10 0-8.800781 7.199219-16 16-16s16 7.199219 16 16c0 3.601562-1.199219 6.878906-3.199219 9.601562-2.960937 3.839844-7.601562 6.398438-12.800781 6.398438-5.039062 0-9.519531-2.320312-12.480469-6zm0 0"/><path d="m336 208 .878906 2.640625c-10.320312 3.519531-21.359375 5.359375-32.878906 5.359375-35.921875 0-67.519531-18.160156-86.238281-45.839844-3.839844-5.679687-7.121094-11.761718-9.761719-18.160156-4.160156-10-6.800781-20.71875-7.679688-32-.242187-2.640625-.320312-5.28125-.320312-8 0-14.160156 2.878906-27.679688 8-40l96 40zm0 0"/><path d="m260.480469 366c2.238281 2.71875 3.519531 6.238281 3.519531 10 0 8.800781-7.199219 16-16 16s-16-7.199219-16-16c0-3.28125.960938-6.320312 2.71875-8.878906 2.882812-4.242188 7.761719-7.121094 13.28125-7.121094 5.039062 0 9.519531 2.320312 12.480469 6zm0 0"/></g><path d="m200 264v16h-112v-96h112zm0 0" fill="#b4dd7f"/><path d="m192 328c0 3.28125-.960938 6.320312-2.71875 8.878906-2.882812 4.242188-7.761719 7.121094-13.28125 7.121094s-10.398438-2.878906-13.28125-7.121094c-1.757812-2.558594-2.71875-5.597656-2.71875-8.878906 0-8.800781 7.199219-16 16-16s16 7.199219 16 16zm0 0" fill="#fcd770"/><path d="m117.28125 367.121094c1.757812 2.558594 2.71875 5.597656 2.71875 8.878906 0 8.800781-7.199219 16-16 16s-16-7.199219-16-16 7.199219-16 16-16c5.519531 0 10.398438 2.878906 13.28125 7.121094zm0 0" fill="#fcd770"/><path d="m48 448h16v16h-16zm0 0"/><path d="m80 448h16v16h-16zm0 0"/><path d="m112 448h16v16h-16zm0 0"/><path d="m384 448h64v16h-64zm0 0"/><path d="m480 416v-264c0-22.054688-17.945312-40-40-40h-24c0-61.761719-50.238281-112-112-112s-112 50.238281-112 112h-136c-22.054688 0-40 17.945312-40 40v264h-16v40c0 22.054688 17.945312 40 40 40h416c22.054688 0 40-17.945312 40-40v-40zm-40-288c13.230469 0 24 10.769531 24 24v264h-16v-256c0-8.824219-7.175781-16-16-16h-20.71875c1.542969-5.183594 2.65625-10.535156 3.4375-16zm-227.351562-45.398438 84.910156 35.382813 29.074218 87.207031c-7.273437 1.769532-14.824218 2.808594-22.632812 2.808594-52.9375 0-96-43.0625-96-96 0-10.257812 1.65625-20.128906 4.648438-29.398438zm129.183593 117.597657-28.679687-86.039063 64.078125-64.082031c14.175781 16.730469 22.769531 38.328125 22.769531 61.921875 0 39.503906-24 73.488281-58.167969 88.199219zm-37.832031-184.199219c23.59375 0 45.191406 8.59375 61.929688 22.761719l-63.792969 63.789062-83.289063-34.695312c16.007813-30.765625 48.136719-51.855469 85.152344-51.855469zm-272 136c0-13.230469 10.769531-24 24-24h137.28125c.78125 5.464844 1.886719 10.816406 3.4375 16h-132.71875c-8.824219 0-16 7.175781-16 16v256h-16zm448 304c0 13.230469-10.769531 24-24 24h-416c-13.230469 0-24-10.769531-24-24v-24h164.816406c11.503906 10.34375 26.222656 16 41.816406 16h50.742188c15.59375 0 30.3125-5.65625 41.816406-16h100.808594v-16h-107.3125l-2.34375 2.34375c-8.808594 8.808594-20.511719 13.65625-32.976562 13.65625h-50.742188c-12.457031 0-24.167969-4.847656-32.976562-13.65625l-2.335938-2.34375h-123.3125v-256h138.960938c18.023437 37.777344 56.472656 64 101.039062 64s83.015625-26.222656 101.039062-64h26.960938v272h48zm0 0"/><path d="m392 336c-4.910156 0-9.480469 1.496094-13.289062 4.039062l-27.910157-20.925781c.710938-2.265625 1.199219-4.625 1.199219-7.113281 0-13.230469-10.769531-24-24-24s-24 10.769531-24 24c0 2.753906.558594 5.359375 1.414062 7.824219l-44.804687 35.847656c-3.671875-2.289063-7.96875-3.671875-12.609375-3.671875-5.382812 0-10.304688 1.847656-14.3125 4.847656l-34.496094-23c.480469-1.878906.808594-3.816406.808594-5.847656 0-13.230469-10.769531-24-24-24s-24 10.769531-24 24c0 2.03125.328125 3.96875.808594 5.847656l-34.496094 23c-4.007812-3.007812-8.929688-4.847656-14.3125-4.847656-13.230469 0-24 10.769531-24 24s10.769531 24 24 24 24-10.769531 24-24c0-2.03125-.328125-3.96875-.808594-5.847656l34.496094-23c4.007812 3.007812 8.929688 4.847656 14.3125 4.847656s10.304688-1.839844 14.3125-4.847656l34.496094 23c-.480469 1.878906-.808594 3.824218-.808594 5.847656 0 13.230469 10.769531 24 24 24s24-10.769531 24-24c0-2.753906-.558594-5.359375-1.414062-7.824219l44.804687-35.847656c3.671875 2.289063 7.96875 3.671875 12.609375 3.671875 4.910156 0 9.480469-1.496094 13.289062-4.039062l27.910157 20.925781c-.710938 2.265625-1.199219 4.625-1.199219 7.113281 0 13.230469 10.769531 24 24 24s24-10.769531 24-24-10.769531-24-24-24zm-288 48c-4.40625 0-8-3.59375-8-8s3.59375-8 8-8 8 3.59375 8 8-3.59375 8-8 8zm72-48c-4.40625 0-8-3.59375-8-8s3.59375-8 8-8 8 3.59375 8 8-3.59375 8-8 8zm72 48c-4.40625 0-8-3.59375-8-8s3.59375-8 8-8 8 3.59375 8 8-3.59375 8-8 8zm80-64c-4.40625 0-8-3.59375-8-8s3.59375-8 8-8 8 3.59375 8 8-3.59375 8-8 8zm64 48c-4.40625 0-8-3.59375-8-8s3.59375-8 8-8 8 3.59375 8 8-3.59375 8-8 8zm0 0"/><path d="m208 176h-128v112h128zm-16 96h-96v-80h96zm0 0"/><path d="m112 208h64v16h-64zm0 0"/><path d="m112 240h64v16h-64zm0 0"/><path d="m224 256h16v16h-16zm0 0"/><path d="m256 256h160v16h-160zm0 0"/></svg>